<?xml version="1.0" encoding="UTF-8"?>
<svg version="1.1" xmlns="http://www.w3.org/2000/svg" width="497" height="502">
<path d="M0 0 C1.20117773 -0.0023488 2.40235546 -0.0046976 3.63993251 -0.00711757 C4.979668 0.00044545 6.31940242 0.00820012 7.65913582 0.01612568 C9.07709244 0.01723542 10.49504996 0.01747199 11.9130069 0.01690751 C15.81877185 0.01794661 19.72440782 0.03159976 23.63013768 0.04729283 C27.8387982 0.06205407 32.04746967 0.06530899 36.2561512 0.0700655 C44.50520516 0.0813249 52.7541941 0.10363303 61.00321208 0.13005617 C67.70646811 0.15140624 74.40972446 0.16920826 81.11299706 0.18447018 C82.06587124 0.18665035 83.01874542 0.18883052 84.00049458 0.19107676 C85.93606931 0.19550224 87.87164406 0.1999251 89.8072188 0.20434538 C107.97322701 0.246364 126.13917839 0.30147931 144.30513801 0.3605356 C160.93345942 0.4141859 177.5617702 0.45143849 194.19015048 0.48093423 C211.2523654 0.51134713 228.31452069 0.5527865 245.37667954 0.60621911 C254.96048453 0.63603679 264.54425307 0.66145032 274.12809563 0.67534161 C282.28741949 0.6872907 290.44663328 0.70963256 298.60588847 0.74549749 C302.77050663 0.76351645 306.93499286 0.77669519 311.09965324 0.77694988 C314.91056409 0.7773094 318.72116598 0.79139342 322.53199174 0.81651918 C323.91218187 0.82319295 325.2924075 0.82480277 326.67260824 0.82089629 C328.54616019 0.8163391 330.41972895 0.83190966 332.29321289 0.84851074 C333.33467842 0.85149349 334.37614395 0.85447624 335.44916904 0.85754937 C338.72154039 1.2995122 340.6455226 2.26140018 343.27244759 4.23885822 C343.27244759 4.89885822 343.27244759 5.55885822 343.27244759 6.23885822 C343.93244759 6.23885822 344.59244759 6.23885822 345.27244759 6.23885822 C345.38683176 49.59509902 345.47496533 92.95132387 345.52777423 136.30768574 C345.53402795 141.42349674 345.54049954 146.53930744 345.54710579 151.65511799 C345.54841734 152.67360607 345.54972889 153.69209416 345.55108019 154.74144552 C345.57285104 171.24392262 345.61228181 187.74631285 345.65821157 204.24873837 C345.70492948 221.17521284 345.7327331 238.10164174 345.74289006 255.02817804 C345.74975891 265.47716613 345.77147208 275.92590869 345.81202992 286.37482122 C345.83841071 293.53499162 345.84645918 300.69503464 345.83995447 307.85525014 C345.83674428 311.98960712 345.8417479 316.12353434 345.86847496 320.25781536 C345.89275545 324.04118728 345.8940698 327.8238393 345.87694206 331.60724393 C345.87381943 333.62767941 345.89543136 335.64810607 345.91785413 337.66841954 C345.87727517 342.55079231 345.8208812 346.16278877 343.58698845 350.54586029 C338.1545425 353.32063971 332.62587747 352.92629393 326.63852119 352.87377644 C325.2181152 352.87953771 323.79771665 352.88747888 322.3773337 352.89741266 C318.4740089 352.91830872 314.57129436 352.90795873 310.6679672 352.89248157 C306.45862631 352.88118321 302.24939142 352.89862313 298.04007149 352.91238117 C289.79426184 352.9346338 281.54867953 352.92980358 273.30286091 352.91531797 C266.60295663 352.90403444 259.90311615 352.90249098 253.20320511 352.90793705 C252.25031318 352.90870322 251.29742126 352.90946938 250.31565382 352.91025876 C248.3799964 352.91185736 246.44433899 352.91347842 244.5086816 352.91512172 C226.35126513 352.92938495 208.19397481 352.91297709 190.03657902 352.88611989 C174.44839067 352.863777 158.86038845 352.86766351 143.27220345 352.89071369 C125.17903326 352.91745537 107.08597365 352.92801539 88.99278647 352.91265237 C87.06448243 352.91105959 85.13617837 352.90948774 83.2078743 352.90793705 C82.25905815 352.90716567 81.31024201 352.90639429 80.33267386 352.90559954 C73.63840195 352.90127791 66.94420004 352.90857899 60.24993896 352.92033482 C52.09536282 352.93434008 43.9410274 352.93060143 35.78647893 352.9039311 C31.62389111 352.89076672 27.46170503 352.88568478 23.29911995 352.90217686 C19.49127456 352.91703562 15.68420464 352.90895695 11.87642998 352.8822891 C10.49630988 352.87668668 9.11612476 352.87958402 7.73604619 352.89166804 C5.86509137 352.90679828 3.99395397 352.88833893 2.12304783 352.86806393 C1.08228672 352.86725217 0.04152562 352.8664404 -1.0307737 352.86560404 C-4.73357243 352.00505378 -5.74461882 350.40656747 -7.72755241 347.23885822 C-8.93745325 344.04798527 -8.85382111 340.93870459 -8.85618687 337.547225 C-8.85941131 336.37950688 -8.86263576 335.21178875 -8.86595792 334.00868523 C-8.86440931 332.72485258 -8.86286071 331.44101994 -8.86126518 330.11828327 C-8.86313309 328.74142325 -8.86543371 327.36456376 -8.86813051 325.98770511 C-8.87425743 322.20019449 -8.87411386 318.4127059 -8.87293613 314.62519145 C-8.87273235 310.54194246 -8.8782487 306.45870059 -8.8829937 302.3754549 C-8.89130563 294.37422238 -8.89404878 286.37299722 -8.89460608 278.37176074 C-8.89508097 271.86923613 -8.89713436 265.36671395 -8.9003067 258.8641901 C-8.90911465 240.43548095 -8.91372584 222.00677763 -8.91297623 203.57806636 C-8.91293627 202.58424779 -8.91289632 201.59042923 -8.91285515 200.56649494 C-8.91281427 199.57146548 -8.91277339 198.57643601 -8.91273127 197.55125414 C-8.91232473 181.42156829 -8.92189594 165.29190579 -8.93599351 149.16222669 C-8.95034873 132.60738775 -8.95726417 116.0525602 -8.95639974 99.49771488 C-8.95606748 90.20060515 -8.95882722 80.90351988 -8.96957779 71.60641575 C-8.97867154 63.69130078 -8.98086731 55.77622136 -8.97406837 47.86110343 C-8.9707975 43.82192594 -8.97076687 39.78281671 -8.97942162 35.74364567 C-8.98726253 32.04630442 -8.98587995 28.34908585 -8.97713748 24.65174769 C-8.97486726 22.68000084 -8.98245001 20.70825025 -8.99037713 18.73651803 C-8.98577833 17.56358441 -8.98117954 16.39065079 -8.97644138 15.18217373 C-8.97665875 14.17200762 -8.97687612 13.16184151 -8.97710007 12.12106431 C-8.69955446 8.91548962 -7.85278388 6.24331325 -6.72755241 3.23885822 C-7.38755241 2.90885822 -8.04755241 2.57885822 -8.72755241 2.23885822 C-5.2851364 -0.05608578 -4.05002047 -0.0084451 0 0 Z M11.27244759 21.23885822 C11.27244759 124.19885822 11.27244759 227.15885822 11.27244759 333.23885822 C114.89244759 333.23885822 218.51244759 333.23885822 325.27244759 333.23885822 C325.27244759 230.27885822 325.27244759 127.31885822 325.27244759 21.23885822 C221.65244759 21.23885822 118.03244759 21.23885822 11.27244759 21.23885822 Z " fill="#A01727" transform="translate(83.72755241394043,74.76114177703857)"/>
<path d="M0 0 C1.16648575 0.00141495 2.3329715 0.0028299 3.5348053 0.00428772 C7.24328222 0.00986419 10.95169772 0.02241241 14.66015625 0.03515625 C17.18163975 0.04017429 19.7031242 0.04473666 22.22460938 0.04882812 C28.39064579 0.05982592 34.55664663 0.0765406 40.72265625 0.09765625 C41.21765625 1.08765625 41.21765625 1.08765625 41.72265625 2.09765625 C40.96582031 3.89770508 40.96582031 3.89770508 39.73828125 6.0546875 C39.29742187 6.83779297 38.8565625 7.62089844 38.40234375 8.42773438 C37.93054688 9.24693359 37.45875 10.06613281 36.97265625 10.91015625 C36.51632813 11.71775391 36.06 12.52535156 35.58984375 13.35742188 C34.3124574 15.61130733 33.02646408 17.85895327 31.72265625 20.09765625 C31.36099365 21.00153076 30.99933105 21.90540527 30.62670898 22.83666992 C28.72265625 25.09765625 28.72265625 25.09765625 26.92770386 25.53205872 C24.51873194 25.69286233 22.15593832 25.6842091 19.7421875 25.62890625 C18.85536789 25.63216919 17.96854828 25.63543213 17.05485535 25.63879395 C13.2622532 25.65195265 9.47082655 25.60741198 5.6784668 25.56787109 C2.90767675 25.54727755 0.13800916 25.55626606 -2.6328125 25.56640625 C-3.478936 25.54678833 -4.32505951 25.52717041 -5.19682312 25.50695801 C-10.73496358 25.5309033 -14.07058859 26.67717158 -18.57344055 29.92492676 C-20.27734375 31.09765625 -20.27734375 31.09765625 -23.27734375 32.09765625 C-24.01993724 34.4079471 -24.68878175 36.74340825 -25.27734375 39.09765625 C-25.60734375 39.42765625 -25.93734375 39.75765625 -26.27734375 40.09765625 C-27.00027954 47.50478529 -26.96837316 54.08238382 -22.27734375 60.09765625 C-15.65918846 66.18306955 -9.60610235 66.96369165 -0.875 66.8671875 C0.86336876 66.88418953 0.86336876 66.88418953 2.63685608 66.90153503 C6.31175334 66.93210559 9.98517592 66.92244232 13.66015625 66.91015625 C17.35965448 66.92432137 21.05900324 66.94665843 24.75843811 66.97233582 C27.05433434 66.9853894 29.35029571 66.99011618 31.64622498 66.98579407 C32.67812454 66.98637314 33.71002411 66.98695221 34.77319336 66.98754883 C35.6831456 66.98499588 36.59309784 66.98244293 37.53062439 66.97981262 C39.72265625 67.09765625 39.72265625 67.09765625 41.72265625 68.09765625 C41.72265625 76.67765625 41.72265625 85.25765625 41.72265625 94.09765625 C38.75265625 93.76765625 35.78265625 93.43765625 32.72265625 93.09765625 C31.00870267 93.01273447 29.29290072 92.95425441 27.5769043 92.93994141 C26.67534103 92.92967926 25.77377777 92.91941711 24.84489441 92.90884399 C23.4289373 92.897892 23.4289373 92.897892 21.984375 92.88671875 C19.92642432 92.85865132 17.86848172 92.82998686 15.81054688 92.80078125 C12.61173729 92.75962955 9.41307869 92.72268036 6.21411133 92.69628906 C-23.30964572 92.43246071 -23.30964572 92.43246071 -35.27734375 83.09765625 C-36.30859375 82.35515625 -37.33984375 81.61265625 -38.40234375 80.84765625 C-46.9129244 72.70710085 -52.66408737 61.98987372 -53.48046875 50.15234375 C-53.63776167 39.48264034 -51.69657047 30.33407551 -46.27734375 21.09765625 C-45.61734375 19.96328125 -44.95734375 18.82890625 -44.27734375 17.66015625 C-37.74226603 8.89309814 -27.07711571 2.54345154 -16.39160156 0.56274414 C-10.9527571 -0.18470983 -5.4785244 -0.02517512 0 0 Z " fill="#9F1828" transform="translate(185.27734375,173.90234375)"/>
<path d="M0 0 C1.34888732 0.00015905 2.69778075 0.00584927 4.04663086 0.01586914 C5.10991859 0.01799156 5.10991859 0.01799156 6.19468689 0.02015686 C8.46699173 0.02577096 10.73919936 0.03832576 13.01147461 0.05102539 C14.54858257 0.05603858 16.08569206 0.0606018 17.62280273 0.06469727 C21.39823103 0.07574497 25.17358632 0.09301898 28.94897461 0.11352539 C29.11155372 8.33701568 29.23573615 16.55982875 29.31165981 24.78453159 C29.34811022 28.60416707 29.3975032 32.42269891 29.47705078 36.24169922 C29.55341431 39.93115424 29.59502647 43.61955164 29.61311531 47.30973625 C29.6259961 48.71361879 29.65115138 50.11744687 29.68908501 51.52087593 C29.97388085 62.49951013 29.97388085 62.49951013 27.43356323 66.49998474 C25.69421003 68.26233894 23.97245037 69.69459372 21.94897461 71.11352539 C21.10850586 71.84442383 20.26803711 72.57532227 19.40209961 73.32836914 C18.67506836 73.8968457 17.94803711 74.46532227 17.19897461 75.05102539 C16.46163086 75.63754883 15.72428711 76.22407227 14.96459961 76.82836914 C12.94897461 78.11352539 12.94897461 78.11352539 9.94897461 78.11352539 C9.94897461 78.77352539 9.94897461 79.43352539 9.94897461 80.11352539 C1.84026947 84.49660925 -6.12529634 87.79573308 -15.05102539 90.11352539 C-15.90825195 90.34040039 -16.76547852 90.56727539 -17.64868164 90.80102539 C-36.50518663 94.99783639 -57.0471383 92.11029105 -74.05102539 83.11352539 C-75.27940066 82.50775129 -76.50842616 81.90329106 -77.73852539 81.30102539 C-78.50165039 80.90915039 -79.26477539 80.51727539 -80.05102539 80.11352539 C-80.05102539 79.45352539 -80.05102539 78.79352539 -80.05102539 78.11352539 C-80.81415039 77.82477539 -81.57727539 77.53602539 -82.36352539 77.23852539 C-85.05102539 76.11352539 -85.05102539 76.11352539 -88.05102539 74.11352539 C-87.62330854 70.79871983 -86.64180017 68.19804775 -85.17602539 65.23852539 C-82.21172807 58.86636802 -81.24675913 51.98899437 -80.05102539 45.11352539 C-78.73102539 45.77352539 -77.41102539 46.43352539 -76.05102539 47.11352539 C-76.05102539 47.77352539 -76.05102539 48.43352539 -76.05102539 49.11352539 C-75.39102539 49.11352539 -74.73102539 49.11352539 -74.05102539 49.11352539 C-74.05102539 49.77352539 -74.05102539 50.43352539 -74.05102539 51.11352539 C-73.39102539 51.11352539 -72.73102539 51.11352539 -72.05102539 51.11352539 C-72.05102539 51.77352539 -72.05102539 52.43352539 -72.05102539 53.11352539 C-71.39102539 53.11352539 -70.73102539 53.11352539 -70.05102539 53.11352539 C-70.05102539 53.77352539 -70.05102539 54.43352539 -70.05102539 55.11352539 C-69.5109082 55.38165039 -68.97079102 55.64977539 -68.41430664 55.92602539 C-66.69719192 56.78884006 -64.98712806 57.66573162 -63.28149414 58.55102539 C-62.27731445 59.06665039 -61.27313477 59.58227539 -60.23852539 60.11352539 C-59.24208008 60.62915039 -58.24563477 61.14477539 -57.21899414 61.67602539 C-44.37882529 67.50239054 -26.11701726 67.40565676 -12.89477539 62.46508789 C-4.42509797 58.6268598 -4.42509797 58.6268598 2.94897461 53.11352539 C3.10740111 51.04267819 3.20021883 48.9667451 3.26538086 46.89086914 C3.30727539 45.63081055 3.34916992 44.37075195 3.39233398 43.07250977 C3.43215057 41.73201803 3.47186275 40.39152319 3.51147461 39.05102539 C3.55465503 37.70661017 3.59826916 36.36220879 3.64233398 35.01782227 C3.74882744 31.71652526 3.84944211 28.4150396 3.94897461 25.11352539 C-2.98102539 25.11352539 -9.91102539 25.11352539 -17.05102539 25.11352539 C-15.64951526 21.60975007 -14.34981397 18.71129723 -12.48461914 15.50415039 C-11.99928711 14.66754883 -11.51395508 13.83094727 -11.01391602 12.96899414 C-10.51053711 12.10918945 -10.0071582 11.24938477 -9.48852539 10.36352539 C-8.9812793 9.48825195 -8.4740332 8.61297852 -7.95141602 7.71118164 C-3.53885162 0.13167688 -3.53885162 0.13167688 0 0 Z " fill="#A21829" transform="translate(347.051025390625,240.886474609375)"/>
<path d="M0 0 C-0.5659371 3.69909613 -1.98813413 5.28795021 -4.6875 7.8125 C-7.45101129 10.42384637 -9.76942742 12.99008598 -12 16.0625 C-13.453125 17.77734375 -13.453125 17.77734375 -15 19 C-18.90645554 19.13021518 -21.47850509 18.5514712 -25.1015625 17.23828125 C-39.07739917 12.31552091 -53.97268414 14.19783633 -67.1484375 20.5078125 C-77.92483994 26.34389946 -85.46283354 34.09499939 -91 45 C-91.39058594 45.76828125 -91.78117187 46.5365625 -92.18359375 47.328125 C-95.47735101 54.61541213 -96.20081035 62.11325999 -97 70 C-100.34776719 68.5095557 -102.84247684 66.55762966 -105.625 64.1875 C-110.42430302 60.26664084 -115.34855357 57.50106566 -121 55 C-121.28823176 49.57280679 -120.40216591 45.25800779 -118.4375 40.25 C-118.16502441 39.5489917 -117.89254883 38.8479834 -117.61181641 38.12573242 C-109.24066547 17.34555325 -92.58096744 2.59756552 -72.36328125 -6.3046875 C-66.09147512 -8.87809362 -59.7034903 -10.04932319 -53 -11 C-52.25621094 -11.14050781 -51.51242187 -11.28101563 -50.74609375 -11.42578125 C-33.02385874 -14.49664869 -15.174688 -8.49540378 0 0 Z " fill="#A11525" transform="translate(354,183)"/>
<path d="M0 0 C0.66 0 1.32 0 2 0 C3.12986322 1.62175618 4.17840313 3.30046843 5.1875 5 C7.99997877 9.60062316 11.00098259 13.44279081 14.8125 17.24609375 C16 19 16 19 15.97265625 20.97265625 C12.80016441 27.58519947 3.69309714 32.46011831 -3 35 C-11.29561657 37.3918873 -19.63374112 37.26113665 -28.1953125 37.1953125 C-29.63833417 37.19157392 -31.08135841 37.18873095 -32.52438354 37.18673706 C-36.2890547 37.179167 -40.05356707 37.15957702 -43.81817627 37.1373291 C-47.67303318 37.11672635 -51.52791619 37.10770475 -55.3828125 37.09765625 C-62.92194673 37.07632358 -70.46095096 37.04226967 -78 37 C-79 34 -79 34 -77.99609375 31.90625 C-77.48175781 31.1121875 -76.96742188 30.318125 -76.4375 29.5 C-73.48415683 24.81467286 -70.80897228 20.03621322 -68.19921875 15.15234375 C-67 13 -67 13 -66 12 C-64.47225859 11.88781458 -62.9394771 11.8432616 -61.40771484 11.82641602 C-59.94016251 11.80618126 -59.94016251 11.80618126 -58.44296265 11.78553772 C-57.37639435 11.77509933 -56.30982605 11.76466095 -55.2109375 11.75390625 C-52.96744427 11.72095053 -50.72395478 11.68773919 -48.48046875 11.65429688 C-44.9321568 11.60698278 -41.38385812 11.56259837 -37.83544922 11.52319336 C-34.4187768 11.48334252 -31.00242932 11.43180841 -27.5859375 11.37890625 C-26.53151459 11.3704921 -25.47709167 11.36207794 -24.39071655 11.35340881 C-15.52170634 11.20540838 -9.5519807 10.23998162 -3 4 C-2.67 3.34 -2.34 2.68 -2 2 C-1.34 2 -0.68 2 0 2 C0 1.34 0 0.68 0 0 Z " fill="#A31B2C" transform="translate(235,294)"/>
<path d="M0 0 C1.20426122 -0.0004987 2.40852245 -0.0009974 3.64927644 -0.00151122 C4.99245721 0.00812469 6.33563667 0.01794617 7.67881489 0.02793312 C9.10033367 0.03118996 10.52185471 0.03356438 11.94337636 0.03512919 C15.85880724 0.04200671 19.7740918 0.06145425 23.68946636 0.08289003 C27.9082459 0.10380717 32.1270526 0.1131585 36.34586811 0.12389565 C43.65830238 0.1440981 50.9706793 0.17167151 58.28306866 0.2042141 C68.85562558 0.25125492 79.42819722 0.28723711 90.00080542 0.32049735 C107.15305485 0.37475775 124.30525902 0.43799456 141.45745564 0.50684547 C158.12182902 0.57371905 174.78620944 0.63638427 191.4506197 0.69336891 C192.47735801 0.69688135 193.50409631 0.7003938 194.5619479 0.70401268 C199.71265628 0.72160707 204.86336493 0.73911851 210.01407373 0.7565887 C252.76226016 0.90168948 295.51038338 1.06134505 338.25848103 1.23047829 C338.25848103 1.56047829 338.25848103 1.89047829 338.25848103 2.23047829 C224.73848103 2.56047829 111.21848103 2.89047829 -5.74151897 3.23047829 C-5.41151897 4.88047829 -5.08151897 6.53047829 -4.74151897 8.23047829 C-4.65861491 10.18848216 -4.62753418 12.14902407 -4.63408852 14.10877132 C-4.63558086 15.29263088 -4.63707321 16.47649043 -4.63861078 17.69622451 C-4.64881646 19.64125256 -4.64881646 19.64125256 -4.65922832 21.62557411 C-4.66292334 23.01994603 -4.66617231 24.41431919 -4.66901356 25.80869311 C-4.67811144 29.63975107 -4.69354142 33.47076147 -4.70999634 37.30179393 C-4.72663563 41.43329476 -4.73741536 45.56481134 -4.74890423 49.69632912 C-4.76961214 56.8542847 -4.79403828 64.01221986 -4.82098484 71.17015457 C-4.85993975 81.51934597 -4.89329483 91.86854945 -4.9252801 102.21776446 C-4.97732541 119.00839371 -5.03390393 135.7990045 -5.09332561 152.58960915 C-5.15104097 168.90079976 -5.2066261 185.21199533 -5.25934124 201.5232029 C-5.26259096 202.52850679 -5.26584068 203.53381068 -5.26918887 204.56957833 C-5.28547849 209.61285706 -5.30172616 214.65613592 -5.31795299 219.69941485 C-5.45264003 261.54312543 -5.59468082 303.38680869 -5.74151897 345.23047829 C-6.40151897 345.23047829 -7.06151897 345.23047829 -7.74151897 345.23047829 C-9.04742299 342.61867026 -8.86811364 340.71131815 -8.87015343 337.78494072 C-8.87337787 336.62120469 -8.87660232 335.45746867 -8.87992448 334.25846791 C-8.87837587 332.96880958 -8.87682727 331.67915125 -8.87523174 330.35041237 C-8.87709849 328.97527846 -8.87939864 327.60014507 -8.88209707 326.22501254 C-8.88823856 322.43298324 -8.88807872 318.6409759 -8.88690269 314.84894276 C-8.88669927 310.76429526 -8.89221187 306.67965494 -8.89696026 302.59501076 C-8.90528066 294.5868198 -8.90801574 286.5786362 -8.90857264 278.57044128 C-8.90904722 272.062148 -8.91109908 265.55385716 -8.91427326 259.04556465 C-8.92308428 240.6050392 -8.92769204 222.16451959 -8.92694279 203.72399202 C-8.92690283 202.72904264 -8.92686288 201.73409327 -8.92682171 200.70899391 C-8.92678083 199.71283344 -8.92673995 198.71667298 -8.92669783 197.69032583 C-8.92629142 181.54757978 -8.93585855 165.40485707 -8.94996008 149.26211777 C-8.96431555 132.69830205 -8.97123069 116.13449771 -8.9703663 99.57067561 C-8.970034 90.26682917 -8.97279528 80.96300718 -8.98354435 71.65916634 C-8.99263855 63.73668333 -8.99483358 55.81423585 -8.98803493 47.89174989 C-8.98476401 43.84853579 -8.98473355 39.80538989 -8.99338818 35.76218224 C-9.00122912 32.06106039 -8.99984647 28.36006108 -8.99110404 24.65894231 C-8.98883377 22.68511201 -8.99641664 20.71127797 -9.00434369 18.73746228 C-8.99974489 17.56329527 -8.9951461 16.38912825 -8.99040794 15.17938042 C-8.99062531 14.16813016 -8.99084268 13.15687991 -8.99106663 12.1149857 C-8.71365123 8.90835656 -7.86724404 6.23585198 -6.74151897 3.23047829 C-7.40151897 2.90047829 -8.06151897 2.57047829 -8.74151897 2.23047829 C-5.29384504 -0.067971 -4.0569105 -0.01475777 0 0 Z " fill="#A45964" transform="translate(83.7415189743042,74.76952171325684)"/>
<path d="M0 0 C8.21977595 1.9373793 16.75796808 6.25245448 21.58984375 13.328125 C23.1342872 15.8505901 24.58589278 18.40257458 26 21 C26.5775 22.03125 27.155 23.0625 27.75 24.125 C33.24016064 36.75236947 32.1556266 49.73081034 27.38671875 62.3046875 C26 65 26 65 23 67 C21.99403703 66.0479279 20.99538437 65.08812654 20 64.125 C19.443125 63.59132813 18.88625 63.05765625 18.3125 62.5078125 C17 61 17 61 17 59 C16.34 59 15.68 59 15 59 C12.37296284 55.17591389 10.21153136 51.07518139 8 47 C7.60167969 46.27296875 7.20335937 45.5459375 6.79296875 44.796875 C-0.23108764 30.58085649 -0.54530715 15.49581164 0 0 Z " fill="#A01828" transform="translate(231,243)"/>
<path d="M0 0 C0.33 0 0.66 0 1 0 C1.11675085 23.64343737 1.20494782 47.28683161 1.25906086 70.93049908 C1.28485324 81.90843524 1.32002364 92.8861924 1.37719727 103.86401367 C1.42700043 113.43119688 1.45928349 122.99825046 1.47044247 132.56555969 C1.47696644 137.63243358 1.49232121 142.69893661 1.52865028 147.76569176 C1.56256091 152.53373242 1.57306292 157.30124908 1.56553841 162.06939888 C1.56691516 163.82017742 1.57687713 165.5709733 1.59602737 167.32164764 C1.62088958 169.71151142 1.61493182 172.09939443 1.60127258 174.48930359 C1.61583679 175.18289197 1.630401 175.87648035 1.64540654 176.59108657 C1.59362036 179.94076335 0.98720218 182.0222632 -0.684618 184.93057728 C-6.01303647 188.25651385 -11.52311629 187.6814238 -17.64738464 187.62145996 C-19.06921392 187.62578892 -20.49103793 187.63230488 -21.91284829 187.64082003 C-25.82005608 187.65783256 -29.72662425 187.64361628 -33.63379848 187.62430525 C-37.8471742 187.6088957 -42.06047064 187.62227544 -46.27384949 187.63204956 C-54.52702602 187.64658665 -62.77995683 187.63433229 -71.0331101 187.61293632 C-80.63768024 187.58894858 -90.24219381 187.59063924 -99.84678725 187.59324223 C-116.97790604 187.59693353 -134.10890885 187.5760954 -151.23999023 187.54199219 C-167.87706431 187.50888454 -184.51401669 187.49473637 -201.15112305 187.50097656 C-219.25671425 187.50773412 -237.36225445 187.50529959 -255.46783811 187.48561716 C-256.42437003 187.48457768 -257.38090194 187.48353819 -258.36641968 187.4824672 C-260.28774014 187.48037626 -262.20906059 187.47826529 -264.13038101 187.47613403 C-270.83158121 187.46922738 -277.53276572 187.46857093 -284.23396873 187.47001648 C-292.39368046 187.47145323 -300.55329273 187.46181909 -308.71297141 187.43807012 C-312.87926805 187.42617633 -317.04542572 187.41910732 -321.21173859 187.42490768 C-325.02054584 187.43005385 -328.82905866 187.42148319 -332.63781539 187.40163308 C-334.02059138 187.39686675 -335.40339579 187.39722682 -336.78616776 187.40304345 C-338.65594194 187.41015269 -340.52576105 187.39723088 -342.39549541 187.38311005 C-343.95777623 187.38075324 -343.95777623 187.38075324 -345.55161828 187.37834883 C-346.35958425 187.25349371 -347.16755021 187.1286386 -348 187 C-348.66 186.01 -349.32 185.02 -350 184 C-348.92541212 184.00056958 -348.92541212 184.00056958 -347.82911539 184.00115067 C-305.37492852 184.02352616 -262.92074232 184.04068526 -220.46655074 184.05106533 C-215.36962757 184.05231604 -210.2727044 184.05361037 -205.17578125 184.05493164 C-203.65371544 184.05532511 -203.65371544 184.05532511 -202.10090083 184.05572652 C-185.66839324 184.06007845 -169.23588916 184.0679634 -152.80338365 184.0771528 C-135.94356022 184.08650256 -119.08373863 184.09205842 -102.22391272 184.09408849 C-91.81956478 184.09546096 -81.41522673 184.09979668 -71.01088184 184.10791647 C-63.87734746 184.11320023 -56.7438182 184.11480057 -49.610282 184.11350138 C-45.49394251 184.11286056 -41.3776203 184.11384666 -37.26128387 184.11920547 C-33.4909278 184.12407801 -29.72060059 184.12431332 -25.95024318 184.12089889 C-23.94399686 184.12027751 -21.93775087 184.12458471 -19.93150949 184.12908131 C-13.85762119 184.11900585 -8.00359781 183.94367819 -2 183 C-2 181.35 -2 179.7 -2 178 C-1.67 178 -1.34 178 -1 178 C-0.67 119.26 -0.34 60.52 0 0 Z " fill="#8A2E3A" transform="translate(428,240)"/>
<path d="M0 0 C1.78847803 -0.00298657 1.78847803 -0.00298657 3.61308694 -0.00603348 C4.92435799 -0.00312064 6.23562905 -0.0002078 7.58663559 0.00279331 C8.99252013 0.00235734 10.3984046 0.00148194 11.80428863 0.00020415 C15.67179668 -0.00203562 19.53927713 0.00197342 23.40678167 0.00698221 C27.5758028 0.01129393 31.74482233 0.00983977 35.91384506 0.00907993 C43.13837936 0.00855516 50.36290464 0.01169713 57.58743668 0.01731777 C68.03294376 0.02543903 78.47844647 0.02804864 88.92395636 0.02930576 C105.87041751 0.03149529 122.81687384 0.03815271 139.76333237 0.04760838 C156.22687379 0.05678504 172.6904139 0.06386463 189.15395737 0.06811619 C190.16848497 0.06837891 191.18301257 0.06864164 192.22828344 0.06891232 C197.31778512 0.07021734 202.40728681 0.07148105 207.4967885 0.07272422 C249.73049656 0.08309376 291.96419937 0.1007094 334.19790268 0.12304783 C333.86790268 0.78304783 333.53790268 1.44304783 333.19790268 2.12304783 C332.12738438 2.12451304 332.12738438 2.12451304 331.03523946 2.12600785 C288.76497326 2.18424193 246.49475913 2.25800985 204.22455664 2.35203411 C199.15252119 2.36330268 194.08048547 2.37444107 189.00844955 2.385499 C187.998671 2.38770268 186.98889245 2.38990637 185.94851455 2.39217683 C169.58444638 2.42757817 153.22037826 2.45242628 136.85628596 2.47339485 C120.07329175 2.49513433 103.29034736 2.52816705 86.50739551 2.57174939 C76.14602359 2.5982981 65.78471379 2.61596973 55.42330953 2.62239387 C48.32433922 2.62763792 41.22544717 2.6438217 34.12651876 2.66871349 C30.02684558 2.68276229 25.9273126 2.69188675 21.82761383 2.68805599 C18.07709363 2.68465765 14.32687339 2.69494133 10.57641467 2.71628334 C8.57120397 2.72408504 6.56595272 2.71708802 4.56074071 2.70963079 C3.37538881 2.71908733 2.19003691 2.72854387 0.96876526 2.73828697 C-0.05647963 2.74018557 -1.08172452 2.74208418 -2.13803744 2.74404031 C-5.17025444 3.1754244 -6.55152222 4.09675667 -8.80209732 6.12304783 C-9.13209732 4.47304783 -9.46209732 2.82304783 -9.80209732 1.12304783 C-6.47727656 0.12337032 -3.46431784 -0.00127552 0 0 Z " fill="#82131F" transform="translate(87.80209732055664,76.87695217132568)"/>
<path d="M0 0 C6.93 0 13.86 0 21 0 C20.67 1.98 20.34 3.96 20 6 C19.34 6 18.68 6 18 6 C17.89429688 6.55816406 17.78859375 7.11632812 17.6796875 7.69140625 C16.87311063 10.43098632 15.62796509 12.51107128 14.125 14.9375 C13.61195313 15.77152344 13.09890625 16.60554688 12.5703125 17.46484375 C12.05210937 18.30144531 11.53390625 19.13804687 11 20 C10.66097656 20.92296875 10.32195312 21.8459375 9.97265625 22.796875 C8 25 8 25 5.79589844 25.39282227 C2.95194124 25.49402242 0.155543 25.43447874 -2.6875 25.3125 C-3.67556641 25.28994141 -4.66363281 25.26738281 -5.68164062 25.24414062 C-8.12261559 25.18517988 -10.56054868 25.10295048 -13 25 C-12.17232379 21.29570452 -10.71304054 18.57712177 -8.75 15.3125 C-5.72197954 10.25463397 -2.86872217 5.1636999 0 0 Z " fill="#9B1E2E" transform="translate(233,174)"/>
<path d="M0 0 C6.93 0 13.86 0 21 0 C21 3.54492014 20.11058311 4.93825339 18.375 8 C17.83359375 8.96550781 17.2921875 9.93101562 16.734375 10.92578125 C16.16203125 11.94027344 15.5896875 12.95476562 15 14 C13.87179679 16.06074956 12.74663055 18.12316568 11.625 20.1875 C10.75875 21.775625 9.8925 23.36375 9 25 C1.74 25 -5.52 25 -13 25 C-11.43022337 20.29067011 -10.27774388 17.57515574 -7.625 13.625 C-4.62394782 9.14325247 -2.4685627 4.9371254 0 0 Z " fill="#971626" transform="translate(316,241)"/>
<path d="M0 0 C0.86931152 0.01047363 1.73862305 0.02094727 2.63427734 0.03173828 C3.57529297 0.03818359 4.51630859 0.04462891 5.48583984 0.05126953 C6.47068359 0.06802734 7.45552734 0.08478516 8.47021484 0.10205078 C9.46279297 0.11107422 10.45537109 0.12009766 11.47802734 0.12939453 C13.93399618 0.15300962 16.38948653 0.18594279 18.84521484 0.22705078 C17.67200519 4.11365529 16.38975412 7.23720816 14.03271484 10.53955078 C11.36067837 14.39697599 9.04301932 18.34376476 6.82568359 22.47705078 C5.84521484 24.22705078 5.84521484 24.22705078 4.84521484 25.22705078 C3.35649625 25.3137451 1.86376985 25.33408572 0.37255859 25.32470703 C-0.5265625 25.32148438 -1.42568359 25.31826172 -2.35205078 25.31494141 C-3.29757813 25.3065625 -4.24310547 25.29818359 -5.21728516 25.28955078 C-6.16667969 25.28503906 -7.11607422 25.28052734 -8.09423828 25.27587891 C-10.44781581 25.26405188 -12.80126993 25.24757103 -15.15478516 25.22705078 C-14.58208562 21.69843279 -13.68580788 18.98551747 -11.93994141 15.87158203 C-11.50101563 15.08460938 -11.06208984 14.29763672 -10.60986328 13.48681641 C-10.1503125 12.67921875 -9.69076172 11.87162109 -9.21728516 11.03955078 C-8.76160156 10.22035156 -8.30591797 9.40115234 -7.83642578 8.55712891 C-3.21665399 0.33894043 -3.21665399 0.33894043 0 0 Z " fill="#9F1627" transform="translate(144.15478515625,305.77294921875)"/>
<path d="M0 0 C5.74455029 2.70331778 9.71656157 6.36503319 14 11 C13 13 12 15 11 17 C10.34 17 9.68 17 9 17 C9 17.66 9 18.32 9 19 C8.34 19 7.68 19 7 19 C6.73960937 19.58136719 6.47921875 20.16273438 6.2109375 20.76171875 C4.91871022 23.15025497 3.50719402 24.86044288 1.625 26.8125 C1.03976562 27.43769531 0.45453125 28.06289062 -0.1484375 28.70703125 C-2 30 -2 30 -4.1640625 29.8203125 C-6.62034568 28.72282427 -6.84935371 27.37320796 -8 25 C-9.88316159 23.89163577 -9.88316159 23.89163577 -12 23 C-13.35113205 22.02418241 -14.68946944 21.02970259 -16 20 C-15.49990306 15.7565304 -14.3739117 13.93391508 -11.25 11.0625 C-8.70846912 8.65761056 -6.31626388 6.29173885 -4.125 3.5625 C-2 1 -2 1 0 0 Z " fill="#A01728" transform="translate(359,187)"/>
<path d="M0 0 C1.20426122 -0.0004987 2.40852245 -0.0009974 3.64927644 -0.00151122 C4.99245721 0.00812469 6.33563667 0.01794617 7.67881489 0.02793312 C9.10033367 0.03118996 10.52185471 0.03356438 11.94337636 0.03512919 C15.85880724 0.04200671 19.7740918 0.06145425 23.68946636 0.08289003 C27.9082459 0.10380717 32.1270526 0.1131585 36.34586811 0.12389565 C43.65830238 0.1440981 50.9706793 0.17167151 58.28306866 0.2042141 C68.85562558 0.25125492 79.42819722 0.28723711 90.00080542 0.32049735 C107.15305485 0.37475775 124.30525902 0.43799456 141.45745564 0.50684547 C158.12182902 0.57371905 174.78620944 0.63638427 191.4506197 0.69336891 C192.47735801 0.69688135 193.50409631 0.7003938 194.5619479 0.70401268 C199.71265628 0.72160707 204.86336493 0.73911851 210.01407373 0.7565887 C252.76226016 0.90168948 295.51038338 1.06134505 338.25848103 1.23047829 C338.25848103 1.56047829 338.25848103 1.89047829 338.25848103 2.23047829 C224.73848103 2.56047829 111.21848103 2.89047829 -5.74151897 3.23047829 C-5.41151897 4.88047829 -5.08151897 6.53047829 -4.74151897 8.23047829 C-5.07151897 8.23047829 -5.40151897 8.23047829 -5.74151897 8.23047829 C-5.75364925 9.42651176 -5.75364925 9.42651176 -5.76602459 10.64670753 C-5.84388101 18.15146474 -5.93114404 25.65602501 -6.02904606 33.16054535 C-6.07904792 37.01894327 -6.12537733 40.87731328 -6.16339397 44.73584938 C-6.20019805 48.45773418 -6.24654413 52.17938773 -6.29958248 55.90107536 C-6.31815251 57.32283546 -6.3332508 58.74464517 -6.34486294 60.16647911 C-6.36168013 62.15389333 -6.39185125 64.14118112 -6.42267132 66.12842751 C-6.43599499 67.26093941 -6.44931866 68.39345131 -6.46304607 69.56028175 C-6.74151897 72.23047829 -6.74151897 72.23047829 -8.74151897 74.23047829 C-8.78793444 65.85916933 -8.82343487 57.48791447 -8.84514332 49.11650848 C-8.8555642 45.22899633 -8.8696923 41.34157246 -8.89239788 37.4541111 C-8.91418692 33.69992268 -8.92610035 29.94581898 -8.93127346 26.19157219 C-8.93495836 24.7618991 -8.94215403 23.33223046 -8.95297909 21.90259361 C-8.96757379 19.89458456 -8.96833658 17.88648959 -8.96856976 15.87842751 C-8.97301098 14.73703316 -8.9774522 13.59563881 -8.98202801 12.41965675 C-8.72927518 9.06812408 -7.93546213 6.36064738 -6.74151897 3.23047829 C-7.40151897 2.90047829 -8.06151897 2.57047829 -8.74151897 2.23047829 C-5.29384504 -0.067971 -4.0569105 -0.01475777 0 0 Z " fill="#C88A95" transform="translate(83.7415189743042,74.76952171325684)"/>
<path d="M0 0 C5.61 0 11.22 0 17 0 C15.02 0.99 15.02 0.99 13 2 C13.66 2.66 14.32 3.32 15 4 C15 4.99 15 5.98 15 7 C14.34 7.66 13.68 8.32 13 9 C12.35232207 11.57061311 12.35232207 11.57061311 12 14 C11.01 14.33 10.02 14.66 9 15 C9 16.32 9 17.64 9 19 C7.35 19 5.7 19 4 19 C3.34 16.69 2.68 14.38 2 12 C1.01 12.33 0.02 12.66 -1 13 C-1.66 12.67 -2.32 12.34 -3 12 C-3.3125 9.8125 -3.3125 9.8125 -3 7 C-0.5 4.1875 -0.5 4.1875 2 2 C1.34 1.34 0.68 0.68 0 0 Z " fill="#9C1223" transform="translate(317,242)"/>
<path d="M0 0 C5.74455029 2.70331778 9.71656157 6.36503319 14 11 C13 13 12 15 11 17 C10.34 17 9.68 17 9 17 C9 17.66 9 18.32 9 19 C8.34 19 7.68 19 7 19 C6.73960937 19.58136719 6.47921875 20.16273438 6.2109375 20.76171875 C4.91871022 23.15025497 3.50719402 24.86044288 1.625 26.8125 C1.03976562 27.43769531 0.45453125 28.06289062 -0.1484375 28.70703125 C-2 30 -2 30 -4.2265625 29.69921875 C-4.81179688 29.46847656 -5.39703125 29.23773438 -6 29 C-4.68 28.34 -3.36 27.68 -2 27 C-2 26.34 -2 25.68 -2 25 C-0.625 23.375 -0.625 23.375 1 22 C1.66 22 2.32 22 3 22 C2.67 21.01 2.34 20.02 2 19 C2.99 19 3.98 19 5 19 C5 17.02 5 15.04 5 13 C4.01 12.67 3.02 12.34 2 12 C2 10.35 2 8.7 2 7 C-0.64 6.67 -3.28 6.34 -6 6 C-2.25 1.125 -2.25 1.125 0 0 Z " fill="#9C1626" transform="translate(359,187)"/>
<path d="M0 0 C1.9375 0.3125 1.9375 0.3125 4 1 C4.33 1.99 4.66 2.98 5 4 C5.66 4 6.32 4 7 4 C7 55.48 7 106.96 7 160 C6.67 160 6.34 160 6 160 C5.67 113.47 5.34 66.94 5 19 C4.67 19 4.34 19 4 19 C4 14.05 4 9.1 4 4 C2.68 3.67 1.36 3.34 0 3 C0 2.01 0 1.02 0 0 Z " fill="#813B43" transform="translate(422,77)"/>
<path d="M0 0 C0.65392731 0.00946152 1.30785461 0.01892303 1.9815979 0.02867126 C4.14076879 0.06232105 6.29936204 0.11044266 8.45825195 0.15869141 C9.9561055 0.18486148 11.45397508 0.21012826 12.95185852 0.23452759 C16.89267274 0.3011499 20.83314947 0.38004862 24.77368164 0.46148682 C28.79535985 0.54243505 32.81723592 0.6117976 36.83911133 0.68212891 C44.72932549 0.82181793 52.61922078 0.97447392 60.5090332 1.13525391 C60.5090332 1.46525391 60.5090332 1.79525391 60.5090332 2.13525391 C38.3990332 2.46525391 16.2890332 2.79525391 -6.4909668 3.13525391 C-6.1609668 4.78525391 -5.8309668 6.43525391 -5.4909668 8.13525391 C-5.8209668 8.13525391 -6.1509668 8.13525391 -6.4909668 8.13525391 C-6.50309708 9.33128738 -6.50309708 9.33128738 -6.51547241 10.55148315 C-6.59332883 18.05624036 -6.68059187 25.56080063 -6.77849388 33.06532097 C-6.82849575 36.92371889 -6.87482516 40.7820889 -6.9128418 44.640625 C-6.94964587 48.3625098 -6.99599195 52.08416335 -7.0490303 55.80585098 C-7.06760034 57.22761107 -7.08269862 58.64942079 -7.09431076 60.07125473 C-7.11112795 62.05866895 -7.14129907 64.04595674 -7.17211914 66.03320312 C-7.18544281 67.16571503 -7.19876648 68.29822693 -7.2124939 69.46505737 C-7.4909668 72.13525391 -7.4909668 72.13525391 -9.4909668 74.13525391 C-9.53738227 65.76394495 -9.57288269 57.39269009 -9.59459114 49.0212841 C-9.60501202 45.13377195 -9.61914012 41.24634807 -9.6418457 37.35888672 C-9.66363474 33.6046983 -9.67554817 29.8505946 -9.68072128 26.09634781 C-9.68440618 24.66667472 -9.69160185 23.23700608 -9.70242691 21.80736923 C-9.71702161 19.79936018 -9.7177844 17.79126521 -9.71801758 15.78320312 C-9.7224588 14.64180878 -9.72690002 13.50041443 -9.73147583 12.32443237 C-9.478723 8.9728997 -8.68490996 6.265423 -7.4909668 3.13525391 C-8.1509668 2.80525391 -8.8109668 2.47525391 -9.4909668 2.13525391 C-5.86533033 -0.28183707 -4.30595301 -0.08078711 0 0 Z " fill="#B57A7F" transform="translate(84.490966796875,74.86474609375)"/>
<path d="M0 0 C1.32 0.66 2.64 1.32 4 2 C4 2.66 4 3.32 4 4 C4.66 4 5.32 4 6 4 C6 4.66 6 5.32 6 6 C6.66 6 7.32 6 8 6 C8 6.66 8 7.32 8 8 C8.66 8 9.32 8 10 8 C10 8.66 10 9.32 10 10 C10.61875 10.309375 11.2375 10.61875 11.875 10.9375 C13.25 11.625 14.625 12.3125 16 13 C16 13.99 16 14.98 16 16 C14.35 16 12.7 16 11 16 C10.67 15.34 10.34 14.68 10 14 C9.67 14.33 9.34 14.66 9 15 C7 17 7 17 4.5625 17.125 C3.2940625 17.063125 3.2940625 17.063125 2 17 C1.01 17 0.02 17 -1 17 C-1.33 17 -1.66 17 -2 17 C-2.25706972 11.08739655 -1.2982126 5.76081841 0 0 Z " fill="#971525" transform="translate(267,286)"/>
<path d="M0 0 C0.66 0 1.32 0 2 0 C0.7580393 3.43927579 -0.55740284 6.25207819 -3 9 C-3.66 9 -4.32 9 -5 9 C-5 9.66 -5 10.32 -5 11 C-8.19711206 12.87760502 -10.58361433 13.26181918 -14.27172852 13.30297852 C-15.8484005 13.32794151 -15.8484005 13.32794151 -17.45692444 13.35340881 C-18.58617844 13.36182297 -19.71543243 13.37023712 -20.87890625 13.37890625 C-22.04252182 13.39590073 -23.20613739 13.4128952 -24.40501404 13.43040466 C-28.12412082 13.48355369 -31.84321656 13.52384001 -35.5625 13.5625 C-39.28529691 13.60642185 -43.00800716 13.65312231 -46.73069763 13.70530701 C-49.04773969 13.73726835 -51.36485825 13.76415708 -53.68202209 13.78553772 C-55.25396584 13.80577248 -55.25396584 13.80577248 -56.85766602 13.82641602 C-57.78047867 13.83592789 -58.70329132 13.84543976 -59.65406799 13.85523987 C-62.15441577 13.90858399 -62.15441577 13.90858399 -65 15 C-66.22520264 18.00847418 -66.22520264 18.00847418 -67 21 C-67.99 20.67 -68.98 20.34 -70 20 C-68.87548273 17.0280615 -67.77706209 14.66559313 -66 12 C-63.90840149 11.61473083 -63.90840149 11.61473083 -61.29418945 11.59936523 C-60.31589676 11.58602646 -59.33760406 11.57268768 -58.32966614 11.5589447 C-57.26825912 11.55882889 -56.20685211 11.55871307 -55.11328125 11.55859375 C-54.02291061 11.54538589 -52.93253998 11.53217804 -51.80912781 11.51856995 C-48.31022652 11.47755017 -44.8115878 11.45598321 -41.3125 11.4375 C-37.83134687 11.41367791 -34.35044002 11.38544378 -30.86943054 11.34571838 C-28.70139612 11.3214653 -26.5332321 11.30652238 -24.36506653 11.30210876 C-15.49134566 11.21117485 -9.55408867 10.24198921 -3 4 C-2.67 3.34 -2.34 2.68 -2 2 C-1.34 2 -0.68 2 0 2 C0 1.34 0 0.68 0 0 Z " fill="#7E2234" transform="translate(235,294)"/>
<path d="M0 0 C0.33 0.66 0.66 1.32 1 2 C1.61875 2.144375 2.2375 2.28875 2.875 2.4375 C5.4399084 3.11644634 6.47543783 3.83351692 8 6 C7.77992412 8.90377895 7.07611793 9.92403045 4.99609375 12 C-0.12684532 16.00449588 -4.94826403 19.55807145 -11 22 C-11.99 21.67 -12.98 21.34 -14 21 C-13.67 20.34 -13.34 19.68 -13 19 C-11.35 19 -9.7 19 -8 19 C-8 18.34 -8 17.68 -8 17 C-6.68 17 -5.36 17 -4 17 C-4 16.01 -4 15.02 -4 14 C-3.01 13.34 -2.02 12.68 -1 12 C-1.33 12 -1.66 12 -2 12 C-2.20512828 8.30769095 -1.72405582 6.23260467 0 3 C0 2.01 0 1.02 0 0 Z " fill="#921625" transform="translate(243,307)"/>
<path d="M0 0 C10.23 0 20.46 0 31 0 C31 19.47 31 38.94 31 59 C30.67 59 30.34 59 30 59 C29.67 40.52 29.34 22.04 29 3 C22.07 2.67 15.14 2.34 8 2 C5.36 1.67 2.72 1.34 0 1 C0 0.67 0 0.34 0 0 Z " fill="#851526" transform="translate(344,242)"/>
<path d="M0 0 C6.79930835 -0.02529479 13.59860463 -0.04284349 20.39794922 -0.05493164 C22.71240696 -0.05996943 25.0268615 -0.06679981 27.34130859 -0.07543945 C30.6624429 -0.08752924 33.98353525 -0.09323375 37.3046875 -0.09765625 C38.86411575 -0.10539818 38.86411575 -0.10539818 40.45504761 -0.11329651 C41.41589264 -0.11337204 42.37673767 -0.11344757 43.36669922 -0.11352539 C44.21497284 -0.115746 45.06324646 -0.11796661 45.93722534 -0.12025452 C48 0 48 0 50 1 C50 9.58 50 18.16 50 27 C47.03 26.67 44.06 26.34 41 26 C41 25.67 41 25.34 41 25 C42.98 24.67 44.96 24.34 47 24 C47.33 16.74 47.66 9.48 48 2 C32.16 1.67 16.32 1.34 0 1 C0 0.67 0 0.34 0 0 Z " fill="#C8919D" transform="translate(177,241)"/>
<path d="M0 0 C6.93 0.33 13.86 0.66 21 1 C21 1.33 21 1.66 21 2 C19.85144531 2.02578125 18.70289063 2.0515625 17.51953125 2.078125 C0.26455936 2.63377462 -13.45819152 6.81328865 -27 18 C-26.67 16.02 -26.34 14.04 -26 12 C-24.68 12 -23.36 12 -22 12 C-21.67 10.68 -21.34 9.36 -21 8 C-20.195625 7.87625 -19.39125 7.7525 -18.5625 7.625 C-17.716875 7.41875 -16.87125 7.2125 -16 7 C-15.67 6.34 -15.34 5.68 -15 5 C-10.20867943 3.27512459 -6.07283639 2.79294545 -1 3 C-0.67 2.01 -0.34 1.02 0 0 Z " fill="#A0565F" transform="translate(300,195)"/>
<path d="M0 0 C0.99 0 1.98 0 3 0 C2.67 4.62 2.34 9.24 2 14 C-1.5874856 12.2062572 -4.16756222 10.3896203 -7.25 7.875 C-8.14203125 7.15054688 -9.0340625 6.42609375 -9.953125 5.6796875 C-10.96632812 4.84824219 -10.96632812 4.84824219 -12 4 C-9.05933495 2.52966748 -6.25525674 3 -3 3 C-2.01 2.67 -1.02 2.34 0 2 C0 1.34 0 0.68 0 0 Z " fill="#981F2F" transform="translate(255,239)"/>
<path d="M0 0 C0 0.99 0 1.98 0 3 C-0.495 2.01 -0.495 2.01 -1 1 C-4.47900433 0.82982885 -7.958224 0.66451529 -11.4375 0.5 C-12.41138672 0.45230469 -13.38527344 0.40460938 -14.38867188 0.35546875 C-18.94058728 0.14233559 -23.47385117 -0.02587593 -28.03125 0 C-31.2517785 0 -33.90302218 -0.20077992 -37 -1 C-37 -1.66 -37 -2.32 -37 -3 C-24.52499094 -5.20147219 -12.23264017 -2.49677765 0 0 Z " fill="#9F4953" transform="translate(338,175)"/>
<path d="M0 0 C6.93 0.33 13.86 0.66 21 1 C21 10.9 21 20.8 21 31 C20.67 31 20.34 31 20 31 C20 21.76 20 12.52 20 3 C13.07 3 6.14 3 -1 3 C-0.67 2.01 -0.34 1.02 0 0 Z " fill="#A24F5B" transform="translate(331,263)"/>
<path d="M0 0 C0 0.33 0 0.66 0 1 C-1.916588 1.02712153 -3.8332873 1.04645097 -5.75 1.0625 C-7.35101563 1.07990234 -7.35101563 1.07990234 -8.984375 1.09765625 C-11.53368501 1.01510087 -13.57933591 0.74617558 -16 0 C-16.2475 0.598125 -16.495 1.19625 -16.75 1.8125 C-18.19482573 4.34094503 -19.48280545 5.55070617 -22 7 C-22.99 6.67 -23.98 6.34 -25 6 C-27.3406065 6.27769908 -29.67624308 6.60539977 -32 7 C-23.96771137 -3.2229128 -11.42549232 -1.14503845 0 0 Z " fill="#9A3441" transform="translate(184,176)"/>
<path d="M0 0 C6.93 0 13.86 0 21 0 C21 3.72207387 19.82035432 5.46395589 18 8.6875 C17.443125 9.68136719 16.88625 10.67523438 16.3125 11.69921875 C15.6628125 12.83810547 15.6628125 12.83810547 15 14 C14.34 12.68 13.68 11.36 13 10 C13.66 9.34 14.32 8.68 15 8 C14.98617135 5.94285168 14.98617135 5.94285168 14 4 C10.96452835 2.09081195 8.29165267 1.65460416 4.75 1.375 C3.85796875 1.30023438 2.9659375 1.22546875 2.046875 1.1484375 C1.03367187 1.07496094 1.03367187 1.07496094 0 1 C0 0.67 0 0.34 0 0 Z " fill="#B56A76" transform="translate(316,241)"/>
<path d="M0 0 C3.78777813 0.27388102 7.58049893 0.41316802 11.375 0.5625 C12.39722656 0.60568359 13.41945313 0.64886719 14.47265625 0.69335938 C16.98165288 0.79887792 19.49073943 0.90099213 22 1 C21.67 1.66 21.34 2.32 21 3 C13.41 2.67 5.82 2.34 -2 2 C-2.33 2.66 -2.66 3.32 -3 4 C-5.28515625 4.4140625 -5.28515625 4.4140625 -8.0625 4.625 C-8.98160156 4.69976562 -9.90070313 4.77453125 -10.84765625 4.8515625 C-11.91306641 4.92503906 -11.91306641 4.92503906 -13 5 C-13 4.34 -13 3.68 -13 3 C-7.81728975 -0.42058877 -6.19408422 -1.17185377 0 0 Z " fill="#921124" transform="translate(302,194)"/>
<path d="M0 0 C0.66 0.33 1.32 0.66 2 1 C1.67 1.99 1.34 2.98 1 4 C4.03525486 6.02350324 5.19426202 6.32124018 8.6875 6.625 C9.89986328 6.73714844 9.89986328 6.73714844 11.13671875 6.8515625 C11.75160156 6.90054687 12.36648437 6.94953125 13 7 C13 7.66 13 8.32 13 9 C14.32 9.33 15.64 9.66 17 10 C8.13310817 10.51155145 -0.49454039 8.89844439 -8 4 C-5.50907189 2.75453595 -4.58919267 3.2232422 -2 4 C-2 3.34 -2 2.68 -2 2 C-1.34 2 -0.68 2 0 2 C0 1.34 0 0.68 0 0 Z " fill="#A54550" transform="translate(162,256)"/>
<path d="M0 0 C1.04449911 3.13349732 0.93423645 3.98968256 0 7 C3.465 6.505 3.465 6.505 7 6 C7.33 7.65 7.66 9.3 8 11 C7.34 11 6.68 11 6 11 C6.33 12.32 6.66 13.64 7 15 C6.34 14.67 5.68 14.34 5 14 C5 13.34 5 12.68 5 12 C4.4225 11.731875 3.845 11.46375 3.25 11.1875 C0.9674132 9.98280141 -0.9737942 8.59201885 -3 7 C-2.25 2.25 -2.25 2.25 0 0 Z " fill="#972435" transform="translate(346,200)"/>
<path d="M0 0 C0.99 0.33 1.98 0.66 3 1 C2.43504582 4.73035921 0.95173993 6.37287845 -1.75 8.9375 C-2.46671875 9.62714844 -3.1834375 10.31679687 -3.921875 11.02734375 C-4.60765625 11.67832031 -5.2934375 12.32929688 -6 13 C-7.00357778 13.99640937 -8.00430102 14.9957174 -9 16 C-9.66 16.66 -10.32 17.32 -11 18 C-11.375 15.8125 -11.375 15.8125 -11 13 C-9.03814584 11.28859531 -7.03697617 9.62126675 -5 8 C-4.05563651 5.83468832 -4.05563651 5.83468832 -4 4 C-2.35 4 -0.7 4 1 4 C0.67 2.68 0.34 1.36 0 0 Z " fill="#9D4451" transform="translate(351,182)"/>
<path d="M0 0 C3.45034218 0.86258554 6.03649295 1.86897803 9.1875 3.4375 C10.50814453 4.08525391 10.50814453 4.08525391 11.85546875 4.74609375 C14 6 14 6 15 8 C10.71 7.01 6.42 6.02 2 5 C1.67 10.28 1.34 15.56 1 21 C0.67 21 0.34 21 0 21 C0 14.07 0 7.14 0 0 Z " fill="#AC6771" transform="translate(231,243)"/>
<path d="M0 0 C0.66 0.33 1.32 0.66 2 1 C0.625 3 0.625 3 -1 5 C-1.66 5 -2.32 5 -3 5 C-3.0825 5.598125 -3.165 6.19625 -3.25 6.8125 C-4.24784035 9.7228677 -5.33770358 10.4889669 -8 12 C-11.25 12.6875 -11.25 12.6875 -14 13 C-9.89962427 7.75027653 -5.47035213 3.79037089 0 0 Z " fill="#A34B58" transform="translate(266,185)"/>
<path d="M0 0 C0.66 0 1.32 0 2 0 C0.7580393 3.43927579 -0.55740284 6.25207819 -3 9 C-3.66 9 -4.32 9 -5 9 C-5 9.66 -5 10.32 -5 11 C-8.90028225 13.60018816 -12.47434569 13.15085514 -17 13 C-16.67 12.34 -16.34 11.68 -16 11 C-14.948125 10.731875 -13.89625 10.46375 -12.8125 10.1875 C-8.31567552 8.78684975 -6.37300133 7.21238222 -3 4 C-2.67 3.34 -2.34 2.68 -2 2 C-1.34 2 -0.68 2 0 2 C0 1.34 0 0.68 0 0 Z " fill="#A75864" transform="translate(235,294)"/>
<path d="M0 0 C0.66 0 1.32 0 2 0 C3 3 3 3 1.85546875 5.33984375 C1.30503906 6.19707031 0.75460938 7.05429688 0.1875 7.9375 C-1.69847446 10.90757379 -3.48789528 13.82089204 -5 17 C-5.99 16.01 -6.98 15.02 -8 14 C-7.34 13.67 -6.68 13.34 -6 13 C-6 11.68 -6 10.36 -6 9 C-4.68 9 -3.36 9 -2 9 C-2 8.01 -2 7.02 -2 6 C-2.66 5.67 -3.32 5.34 -4 5 C-2.68 4.34 -1.36 3.68 0 3 C0 2.01 0 1.02 0 0 Z " fill="#A44351" transform="translate(247,181)"/>
<path d="M0 0 C3.62493334 -0.05787784 7.24974857 -0.0935542 10.875 -0.125 C11.90753906 -0.14175781 12.94007813 -0.15851563 14.00390625 -0.17578125 C14.99003906 -0.18222656 15.97617187 -0.18867188 16.9921875 -0.1953125 C18.35899658 -0.21102295 18.35899658 -0.21102295 19.75341797 -0.22705078 C22 0 22 0 24 2 C17.2253215 5.38733925 7.02933406 2.74178189 0 1 C0 0.67 0 0.34 0 0 Z " fill="#851220" transform="translate(301,308)"/>
<path d="M0 0 C5.31427203 2.70923672 8.42148591 5.22864787 12 10 C6.49411765 9.51058824 6.49411765 9.51058824 4.125 7.0625 C3 5 3 5 3 3 C-0.0745356 3.7763932 -0.0745356 3.7763932 -2 6 C-4.125 5.625 -4.125 5.625 -6 5 C-4.02 3.35 -2.04 1.7 0 0 Z " fill="#A85762" transform="translate(359,187)"/>
<path d="M0 0 C2.83879582 -0.0929136 5.63354692 -0.03336822 8.47119141 0.08837891 C9.45925781 0.1109375 10.44732422 0.13349609 11.46533203 0.15673828 C13.906307 0.21569903 16.34424009 0.29792842 18.78369141 0.40087891 C18.78369141 0.73087891 18.78369141 1.06087891 18.78369141 1.40087891 C13.83369141 1.73087891 8.88369141 2.06087891 3.78369141 2.40087891 C3.78369141 2.73087891 3.78369141 3.06087891 3.78369141 3.40087891 C2.13369141 3.40087891 0.48369141 3.40087891 -1.21630859 3.40087891 C-1.54630859 5.05087891 -1.87630859 6.70087891 -2.21630859 8.40087891 C-3.20630859 8.40087891 -4.19630859 8.40087891 -5.21630859 8.40087891 C-5.21630859 4.21234293 -4.63826418 0.83895459 0 0 Z " fill="#BD6A75" transform="translate(235.21630859375,173.59912109375)"/>
<path d="M0 0 C0.66 0.33 1.32 0.66 2 1 C2 1.66 2 2.32 2 3 C7.61 3 13.22 3 19 3 C19 3.66 19 4.32 19 5 C12.4 5 5.8 5 -1 5 C-0.67 3.35 -0.34 1.7 0 0 Z " fill="#B7858C" transform="translate(130,326)"/>
<path d="M0 0 C0.75 1.5625 0.75 1.5625 1 4 C-0.13084437 6.50286409 -1.52139516 8.67007722 -3 11 C-3.12375 10.360625 -3.2475 9.72125 -3.375 9.0625 C-3.58125 8.381875 -3.7875 7.70125 -4 7 C-4.66 6.67 -5.32 6.34 -6 6 C-6.625 3.4375 -6.625 3.4375 -7 1 C-4.50935112 0.31292445 -2.62113708 0 0 0 Z " fill="#9D2D3B" transform="translate(224,176)"/>
<path d="M0 0 C1.32 0.66 2.64 1.32 4 2 C2.87851562 2.70576172 2.87851562 2.70576172 1.734375 3.42578125 C0.74953125 4.04839844 -0.2353125 4.67101562 -1.25 5.3125 C-2.22453125 5.92738281 -3.1990625 6.54226562 -4.203125 7.17578125 C-6.54733713 8.70475759 -8.78784032 10.28820977 -11 12 C-10.67 10.02 -10.34 8.04 -10 6 C-8.68 6 -7.36 6 -6 6 C-5.67 4.68 -5.34 3.36 -5 2 C-3.35 1.67 -1.7 1.34 0 1 C0 0.67 0 0.34 0 0 Z " fill="#A4515E" transform="translate(284,201)"/>
<path d="M0 0 C0.66 0.33 1.32 0.66 2 1 C0.6095501 4.10442031 -1.01571598 6.3656443 -3.375 8.8125 C-3.96023438 9.43769531 -4.54546875 10.06289062 -5.1484375 10.70703125 C-7 12 -7 12 -9.2265625 11.69921875 C-9.81179688 11.46847656 -10.39703125 11.23773438 -11 11 C-9.68 10.34 -8.36 9.68 -7 9 C-7 8.34 -7 7.68 -7 7 C-5.625 5.375 -5.625 5.375 -4 4 C-3.34 4 -2.68 4 -2 4 C-2.33 3.01 -2.66 2.02 -3 1 C-2.01 0.67 -1.02 0.34 0 0 Z " fill="#A54D5A" transform="translate(364,205)"/>
<path d="M0 0 C3.53746396 0.3537464 4.3733147 1.22788992 7.125 3.3125 C10.77774469 4.03731084 10.77774469 4.03731084 14.125 4.3125 C13.795 4.9725 13.465 5.6325 13.125 6.3125 C6.82132197 5.72882611 1.13839937 4.27178381 -4.875 2.3125 C-2.875 0.3125 -2.875 0.3125 0 0 Z " fill="#A44D5B" transform="translate(325.875,195.6875)"/>
<path d="M0 0 C1.32 0.66 2.64 1.32 4 2 C4 2.66 4 3.32 4 4 C4.66 4 5.32 4 6 4 C6 4.66 6 5.32 6 6 C6.66 6.33 7.32 6.66 8 7 C7.01 7.33 6.02 7.66 5 8 C4.67 7.01 4.34 6.02 4 5 C3.01 5 2.02 5 1 5 C1 6.98 1 8.96 1 11 C0.34 11 -0.32 11 -1 11 C-1.33 12.32 -1.66 13.64 -2 15 C-1.38487182 9.99109914 -0.7282448 4.99367864 0 0 Z " fill="#9F626E" transform="translate(267,286)"/>
<path d="M0 0 C1.32 0.33 2.64 0.66 4 1 C-1.2588911 5.38240925 -7.15950976 8.31595098 -14 9 C-14.33 8.34 -14.66 7.68 -15 7 C-12.03 6.34 -9.06 5.68 -6 5 C-6 4.34 -6 3.68 -6 3 C-4.02 2.67 -2.04 2.34 0 2 C0 1.34 0 0.68 0 0 Z " fill="#9F4D58" transform="translate(353,319)"/>
<path d="M0 0 C1.125 1.625 1.125 1.625 2 4 C1.25 6.9375 1.25 6.9375 0 10 C-0.37125 10.94875 -0.7425 11.8975 -1.125 12.875 C-1.41375 13.57625 -1.7025 14.2775 -2 15 C-2.66 15 -3.32 15 -4 15 C-3.91245449 13.24908981 -3.80426627 11.49920449 -3.6875 9.75 C-3.62949219 8.77546875 -3.57148438 7.8009375 -3.51171875 6.796875 C-2.95363476 3.74658389 -2.03630224 2.29288724 0 0 Z " fill="#940F21" transform="translate(240,216)"/>
<path d="M0 0 C0.33 0 0.66 0 1 0 C1.04938628 4.23582327 1.08571263 8.47149465 1.10986328 12.70751953 C1.11992963 14.14895547 1.1335838 15.59037095 1.15087891 17.03173828 C1.17510012 19.10193934 1.18647641 21.17187076 1.1953125 23.2421875 C1.20578613 24.4885498 1.21625977 25.73491211 1.22705078 27.01904297 C1 30 1 30 -1 32 C-1.99 31.67 -2.98 31.34 -4 31 C-3.34 31 -2.68 31 -2 31 C-2 30.01 -2 29.02 -2 28 C-1.34 28 -0.68 28 0 28 C0 18.76 0 9.52 0 0 Z " fill="#8A1C29" transform="translate(352,266)"/>
<path d="M0 0 C0.33 0.66 0.66 1.32 1 2 C0.67 2.66 0.34 3.32 0 4 C0.99 4.33 1.98 4.66 3 5 C2.34 5 1.68 5 1 5 C1 5.99 1 6.98 1 8 C0.1028125 8.1546875 0.1028125 8.1546875 -0.8125 8.3125 C-3.28243264 9.08876455 -4.32251235 10.07088921 -6 12 C-6.66 11.67 -7.32 11.34 -8 11 C-5.50127818 7.1626772 -2.9156164 3.54039134 0 0 Z " fill="#9F3F4B" transform="translate(251,198)"/>
<path d="M0 0 C1.9375 0.3125 1.9375 0.3125 4 1 C4.33 1.99 4.66 2.98 5 4 C5.66 4 6.32 4 7 4 C7 6.31 7 8.62 7 11 C6.67 11 6.34 11 6 11 C5.67 13.64 5.34 16.28 5 19 C4.67 19 4.34 19 4 19 C4 14.05 4 9.1 4 4 C2.68 3.67 1.36 3.34 0 3 C0 2.01 0 1.02 0 0 Z " fill="#A44351" transform="translate(422,77)"/>
<path d="M0 0 C0.66 0.99 1.32 1.98 2 3 C0.68 3 -0.64 3 -2 3 C-2 3.66 -2 4.32 -2 5 C-3.98 5.99 -5.96 6.98 -8 8 C-8 7.34 -8 6.68 -8 6 C-9.98 6 -11.96 6 -14 6 C-14 5.67 -14 5.34 -14 5 C-13.32453125 4.80664062 -12.6490625 4.61328125 -11.953125 4.4140625 C-10.61507813 4.02347656 -10.61507813 4.02347656 -9.25 3.625 C-8.36828125 3.36976563 -7.4865625 3.11453125 -6.578125 2.8515625 C-4.23919428 2.0790066 -2.16557438 1.16374324 0 0 Z " fill="#A9535E" transform="translate(341,300)"/>
<path d="M0 0 C0.66 0 1.32 0 2 0 C2.05382106 2.62527189 2.09358313 5.24944713 2.125 7.875 C2.14175781 8.62136719 2.15851563 9.36773437 2.17578125 10.13671875 C2.1933959 12.09194461 2.10320189 14.04742021 2 16 C1.34 16.66 0.68 17.32 0 18 C-1.23102992 14.30691024 -0.87175152 11.11949288 -0.5625 7.3125 C-0.51029297 6.61060547 -0.45808594 5.90871094 -0.40429688 5.18554688 C-0.27492135 3.45661946 -0.13817469 1.72824645 0 0 Z " fill="#994956" transform="translate(260,278)"/>
<path d="M0 0 C1.65 0 3.3 0 5 0 C1.72973747 3.81530628 -2.23853564 6.40632712 -7 8 C-7.99 7.67 -8.98 7.34 -10 7 C-9.67 6.34 -9.34 5.68 -9 5 C-7.35 5 -5.7 5 -4 5 C-4 4.34 -4 3.68 -4 3 C-2.68 3 -1.36 3 0 3 C0 2.01 0 1.02 0 0 Z " fill="#A9606D" transform="translate(239,321)"/>
<path d="M0 0 C0.66 0 1.32 0 2 0 C2.33 0.99 2.66 1.98 3 3 C2.34 3 1.68 3 1 3 C1.33 4.32 1.66 5.64 2 7 C-0.64 7.66 -3.28 8.32 -6 9 C-6 7 -6 7 -4.125 5.0625 C-3.42375 4.381875 -2.7225 3.70125 -2 3 C-1.34 2.01 -0.68 1.02 0 0 Z " fill="#991C2D" transform="translate(236,296)"/>
<path d="M0 0 C0.66 0.99 1.32 1.98 2 3 C1.38024152 5.34622853 0.70812814 7.67891331 0 10 C-0.16847091 13.29219428 -0.16847091 13.29219428 0 16 C-0.99 15.67 -1.98 15.34 -3 15 C-3.36263859 9.1977825 -2.25684543 5.36000789 0 0 Z " fill="#9D515B" transform="translate(236,223)"/>
<path d="M0 0 C2.475 0.99 2.475 0.99 5 2 C4.04367001 3.29315061 3.08486149 4.58446853 2.125 5.875 C1.59132813 6.59429687 1.05765625 7.31359375 0.5078125 8.0546875 C-1 10 -1 10 -3 12 C-3 10.02 -3 8.04 -3 6 C-2.34 6 -1.68 6 -1 6 C-1 5.34 -1 4.68 -1 4 C-0.34 4 0.32 4 1 4 C0.67 2.68 0.34 1.36 0 0 Z " fill="#A44350" transform="translate(268,211)"/>
<path d="M0 0 C1.65 1.32 3.3 2.64 5 4 C4.6875 5.875 4.6875 5.875 4 8 C3.01 8.66 2.02 9.32 1 10 C0 7 0 7 1 4 C0.34 4 -0.32 4 -1 4 C-0.67 2.68 -0.34 1.36 0 0 Z " fill="#9E505B" transform="translate(246,309)"/>
<path d="M0 0 C0.66 0 1.32 0 2 0 C1.125 7.875 1.125 7.875 0 9 C-0.23287008 10.68183948 -0.41264166 12.3712416 -0.5625 14.0625 C-0.64628906 14.98160156 -0.73007813 15.90070313 -0.81640625 16.84765625 C-0.87699219 17.55792969 -0.93757812 18.26820313 -1 19 C-1.33 19 -1.66 19 -2 19 C-2.05411124 16.58303128 -2.09372278 14.16728213 -2.125 11.75 C-2.14175781 11.06808594 -2.15851563 10.38617188 -2.17578125 9.68359375 C-2.21213482 5.9391765 -2.07944349 3.17647273 0 0 Z " fill="#B66875" transform="translate(159,205)"/>
<path d="M0 0 C0.33 0 0.66 0 1 0 C1.05785647 3.95827235 1.09354717 7.9164367 1.125 11.875 C1.14175781 13.00292969 1.15851563 14.13085938 1.17578125 15.29296875 C1.18222656 16.36933594 1.18867187 17.44570313 1.1953125 18.5546875 C1.20578613 19.54968262 1.21625977 20.54467773 1.22705078 21.56982422 C1 24 1 24 -1 26 C-1.33 24.68 -1.66 23.36 -2 22 C-1.34 22 -0.68 22 0 22 C0 14.74 0 7.48 0 0 Z " fill="#A22A38" transform="translate(78,398)"/>
<path d="M0 0 C5.53846154 -0.36923077 5.53846154 -0.36923077 7.875 1.5 C8.24625 1.995 8.6175 2.49 9 3 C8.01 3.495 8.01 3.495 7 4 C6.67 4.66 6.34 5.32 6 6 C4.68 5.67 3.36 5.34 2 5 C2 4.01 2 3.02 2 2 C1.34 2 0.68 2 0 2 C0 1.34 0 0.68 0 0 Z " fill="#94101F" transform="translate(327,306)"/>
<path d="M0 0 C5.94 0 11.88 0 18 0 C18 0.33 18 0.66 18 1 C17.08476562 1.04898437 16.16953125 1.09796875 15.2265625 1.1484375 C14.03804687 1.22320312 12.84953125 1.29796875 11.625 1.375 C9.84996094 1.47941406 9.84996094 1.47941406 8.0390625 1.5859375 C4.89437681 1.70217346 4.89437681 1.70217346 3 4 C2.01 4 1.02 4 0 4 C0 2.68 0 1.36 0 0 Z " fill="#8D1423" transform="translate(142,307)"/>
<path d="M0 0 C1.98 0 3.96 0 6 0 C5.34 1.98 4.68 3.96 4 6 C2.35 5.67 0.7 5.34 -1 5 C-0.67 3.35 -0.34 1.7 0 0 Z " fill="#A21224" transform="translate(234,177)"/>
<path d="M0 0 C0.66 0 1.32 0 2 0 C2 0.66 2 1.32 2 2 C2.66 2 3.32 2 4 2 C4 2.66 4 3.32 4 4 C6.31 4.66 8.62 5.32 11 6 C9.25 7.125 9.25 7.125 7 8 C4.75 7.125 4.75 7.125 3 6 C3 5.34 3 4.68 3 4 C0.525 3.01 0.525 3.01 -2 2 C-1.34 1.34 -0.68 0.68 0 0 Z " fill="#9D4954" transform="translate(264,315)"/>
<path d="M0 0 C0.99 1.32 1.98 2.64 3 4 C2.67 4.66 2.34 5.32 2 6 C0.68 5.67 -0.64 5.34 -2 5 C-2 5.99 -2 6.98 -2 8 C-2.99 8 -3.98 8 -5 8 C-5.33 6.68 -5.66 5.36 -6 4 C-4.02 2.68 -2.04 1.36 0 0 Z " fill="#A43A46" transform="translate(349,295)"/>
<path d="M0 0 C1.32 0.66 2.64 1.32 4 2 C3.236875 2.7425 2.47375 3.485 1.6875 4.25 C-0.4393702 6.4263323 -2.2559956 8.52167796 -4 11 C-4 5.95749572 -2.59750368 4.22094347 0 0 Z " fill="#973848" transform="translate(316,242)"/>
<path d="M0 0 C2.31 0 4.62 0 7 0 C7 1.65 7 3.3 7 5 C6.01 5.495 6.01 5.495 5 6 C3.2925002 4.71937515 1.62626404 3.38232443 0 2 C0 1.34 0 0.68 0 0 Z " fill="#A04150" transform="translate(144,250)"/>
<path d="M0 0 C3.3 0 6.6 0 10 0 C10 0.66 10 1.32 10 2 C11.32 2.33 12.64 2.66 14 3 C9.1666528 3.08333357 4.76307437 2.95261487 0 2 C0 1.34 0 0.68 0 0 Z " fill="#98404C" transform="translate(165,263)"/>
<path d="M0 0 C2.625 -0.1875 2.625 -0.1875 5 0 C4.67 0.66 4.34 1.32 4 2 C3.01 2.33 2.02 2.66 1 3 C-0.22520264 6.00847418 -0.22520264 6.00847418 -1 9 C-1.99 8.67 -2.98 8.34 -4 8 C-2.87548273 5.0280615 -1.77706209 2.66559313 0 0 Z " fill="#9C3F4B" transform="translate(169,306)"/>
<path d="M0 0 C1.32 0.33 2.64 0.66 4 1 C2.38405168 3.04119788 0.7143618 5.04072937 -1 7 C-1.66 7 -2.32 7 -3 7 C-3 6.34 -3 5.68 -3 5 C-3.66 4.67 -4.32 4.34 -5 4 C-3.35 3.67 -1.7 3.34 0 3 C0 2.01 0 1.02 0 0 Z " fill="#A84654" transform="translate(370,305)"/>
<path d="M0 0 C1.65 0 3.3 0 5 0 C5.33 1.65 5.66 3.3 6 5 C4.02 5.33 2.04 5.66 0 6 C0 4 0 2 0 0 Z " fill="#8E1A27" transform="translate(346,181)"/>
<path d="M0 0 C2.52588702 2.36292656 3.88820837 3.66462511 5 7 C3 8 3 8 0 8 C-1.125 2.25 -1.125 2.25 0 0 Z " fill="#A64452" transform="translate(241,302)"/>
<path d="M0 0 C6.93 0 13.86 0 21 0 C20.34 1.32 19.68 2.64 19 4 C18.67 3.34 18.34 2.68 18 2 C12.06 1.67 6.12 1.34 0 1 C0 0.67 0 0.34 0 0 Z " fill="#A35D68" transform="translate(142,306)"/>
<path d="M0 0 C0 0.66 0 1.32 0 2 C0.99 2.33 1.98 2.66 3 3 C3 3.33 3 3.66 3 4 C-2.625 4.25 -2.625 4.25 -6 2 C-6 1.34 -6 0.68 -6 0 C-3.50907189 -1.24546405 -2.58919267 -0.7767578 0 0 Z " fill="#9C3240" transform="translate(277,294)"/>
<path d="M0 0 C0.99 3.3 1.98 6.6 3 10 C2.34 10 1.68 10 1 10 C-0.65 7.03 -2.3 4.06 -4 1 C-2 0 -2 0 0 0 Z " fill="#A6545F" transform="translate(245,292)"/>
<path d="M0 0 C1.1055189 0.93590504 2.20935453 1.87379858 3.3125 2.8125 C3.92738281 3.33457031 4.54226562 3.85664063 5.17578125 4.39453125 C6.85424679 5.87172469 8.43882034 7.40039131 10 9 C9.01 9.33 8.02 9.66 7 10 C6.67 9.34 6.34 8.68 6 8 C5.175 7.7525 4.35 7.505 3.5 7.25 C2.675 6.8375 1.85 6.425 1 6 C0.1875 2.875 0.1875 2.875 0 0 Z " fill="#B0626D" transform="translate(160,231)"/>
<path d="M0 0 C4.96916636 0.51405169 9.29026351 1.23384882 14 3 C13.34 3.66 12.68 4.32 12 5 C12 4.34 12 3.68 12 3 C10.783125 3.020625 9.56625 3.04125 8.3125 3.0625 C5.08022678 3.06824116 2.15065259 2.78766315 -1 2 C-0.67 1.34 -0.34 0.68 0 0 Z " fill="#B17378" transform="translate(325,173)"/>
<path d="M0 0 C0.99 0.33 1.98 0.66 3 1 C2.34 2.65 1.68 4.3 1 6 C0.01 6 -0.98 6 -2 6 C-4.1875 3.5 -4.1875 3.5 -6 1 C-4.02 1.66 -2.04 2.32 0 3 C0 2.01 0 1.02 0 0 Z " fill="#AC626F" transform="translate(255,303)"/>
<path d="M0 0 C0.33 0 0.66 0 1 0 C1.04898438 0.63808594 1.09796875 1.27617187 1.1484375 1.93359375 C1.22320312 2.75988281 1.29796875 3.58617187 1.375 4.4375 C1.44460937 5.26121094 1.51421875 6.08492188 1.5859375 6.93359375 C1.72257813 7.61550781 1.85921875 8.29742187 2 9 C2.66 9.33 3.32 9.66 4 10 C2.02 10.99 2.02 10.99 0 12 C-1.49498913 9.01002175 -1.11577446 6.29957225 -1 3 C-0.67 2.01 -0.34 1.02 0 0 Z " fill="#8D1828" transform="translate(234,261)"/>
<path d="M0 0 C0.99 0 1.98 0 3 0 C1.55049545 3.7910119 -0.15172566 7.3874638 -2 11 C-2.66 10.67 -3.32 10.34 -4 10 C-4 8.68 -4 7.36 -4 6 C-3.01 6 -2.02 6 -1 6 C-1.309375 5.071875 -1.309375 5.071875 -1.625 4.125 C-1.810625 3.073125 -1.810625 3.073125 -2 2 C-1.34 1.34 -0.68 0.68 0 0 Z " fill="#AF5B6B" transform="translate(327,255)"/>
<path d="M0 0 C-3.3146667 2.02907167 -5.4315979 2.12742133 -9.25 1.625 C-10.14203125 1.51414062 -11.0340625 1.40328125 -11.953125 1.2890625 C-12.62859375 1.19367188 -13.3040625 1.09828125 -14 1 C-14 0.67 -14 0.34 -14 0 C-9.20699867 -1.39151652 -4.84864218 -0.68662689 0 0 Z " fill="#A84C56" transform="translate(305,330)"/>
<path d="M0 0 C3.3 0.33 6.6 0.66 10 1 C10.33 2.32 10.66 3.64 11 5 C9.35153231 4.55123384 7.70626545 4.09069512 6.0625 3.625 C5.14597656 3.36976563 4.22945313 3.11453125 3.28515625 2.8515625 C1 2 1 2 0 0 Z " fill="#A9626C" transform="translate(273,323)"/>
<path d="M0 0 C5.75 -0.125 5.75 -0.125 8 1 C7.67 2.32 7.34 3.64 7 5 C6.34 5 5.68 5 5 5 C5 4.34 5 3.68 5 3 C3.68 3.33 2.36 3.66 1 4 C0.67 2.68 0.34 1.36 0 0 Z " fill="#92121F" transform="translate(261,312)"/>
<path d="M0 0 C0 0.66 0 1.32 0 2 C-3.90028225 4.60018816 -7.47434569 4.15085514 -12 4 C-11.67 3.34 -11.34 2.68 -11 2 C-9.00390625 1.3671875 -9.00390625 1.3671875 -6.5625 0.875 C-5.75941406 0.70742188 -4.95632812 0.53984375 -4.12890625 0.3671875 C-2 0 -2 0 0 0 Z " fill="#9A3E4C" transform="translate(230,303)"/>
<path d="M0 0 C0.98120464 3.05263664 0.98120464 4.94736336 0 8 C-0.66 8 -1.32 8 -2 8 C-2 8.66 -2 9.32 -2 10 C-2.99 10.33 -3.98 10.66 -5 11 C-3.55049545 7.2089881 -1.84827434 3.6125362 0 0 Z " fill="#A95763" transform="translate(341,245)"/>
<path d="M0 0 C1.98 0 3.96 0 6 0 C4.7874262 3.72433382 3.49140021 7.37802806 2 11 C1.67 11 1.34 11 1 11 C1.33 7.7 1.66 4.4 2 1 C1.34 0.67 0.68 0.34 0 0 Z " fill="#A95262" transform="translate(258,225)"/>
<path d="M0 0 C1.32 0.66 2.64 1.32 4 2 C3.38125 2.28875 2.7625 2.5775 2.125 2.875 C-0.13325765 3.93720042 -0.13325765 3.93720042 -2 6 C-4.125 5.625 -4.125 5.625 -6 5 C-4.02 3.35 -2.04 1.7 0 0 Z " fill="#B2767F" transform="translate(359,187)"/>
<path d="M0 0 C0.66 0 1.32 0 2 0 C0.61122646 3.35620271 -0.91677965 5.07298728 -4 7 C-4.66 7 -5.32 7 -6 7 C-6.33 6.01 -6.66 5.02 -7 4 C-4.35261084 2.5393715 -3.10551666 2 0 2 C0 1.34 0 0.68 0 0 Z " fill="#A54F5C" transform="translate(364,312)"/>
<path d="M0 0 C0.33 0.66 0.66 1.32 1 2 C0.00390625 3.9453125 0.00390625 3.9453125 -1.4375 6.125 C-1.91058594 6.84945313 -2.38367188 7.57390625 -2.87109375 8.3203125 C-3.24363281 8.87460937 -3.61617187 9.42890625 -4 10 C-4.99 8.68 -5.98 7.36 -7 6 C-6.01 6 -5.02 6 -4 6 C-4 5.34 -4 4.68 -4 4 C-3.34 4 -2.68 4 -2 4 C-2 3.01 -2 2.02 -2 1 C-1.34 0.67 -0.68 0.34 0 0 Z " fill="#AC5D68" transform="translate(160,310)"/>
<path d="M0 0 C0.33 0 0.66 0 1 0 C1 2.31 1 4.62 1 7 C-0.98 7.33 -2.96 7.66 -5 8 C-3.6299034 5.0490227 -2.06764583 2.51713405 0 0 Z " fill="#B1626D" transform="translate(143,190)"/>
<path d="M0 0 C3 1 3 1 4.3125 2.8125 C5 5 5 5 4.125 7.25 C3.75375 7.8275 3.3825 8.405 3 9 C3.66 9.33 4.32 9.66 5 10 C4.01 10 3.02 10 2 10 C1.34 6.7 0.68 3.4 0 0 Z " fill="#AE5864" transform="translate(233,271)"/>
<path d="M0 0 C0.66 0.33 1.32 0.66 2 1 C1 3 0 5 -1 7 C-1.66 7 -2.32 7 -3 7 C-3.33 7.66 -3.66 8.32 -4 9 C-4.33 7.68 -4.66 6.36 -5 5 C-4.34 5 -3.68 5 -3 5 C-3 4.34 -3 3.68 -3 3 C-1.5 1.375 -1.5 1.375 0 0 Z " fill="#A2575E" transform="translate(371,197)"/>
<path d="M0 0 C1.32 0.66 2.64 1.32 4 2 C-1.75 5.875 -1.75 5.875 -4 7 C-4.33 5.68 -4.66 4.36 -5 3 C-4.360625 2.690625 -3.72125 2.38125 -3.0625 2.0625 C-1.06389179 1.1654837 -1.06389179 1.1654837 0 0 Z " fill="#B36871" transform="translate(167,199)"/>
<path d="M0 0 C1 3 1 3 0.22265625 4.82421875 C-0.8515625 6.54947917 -1.92578125 8.27473958 -3 10 C-3.66 10 -4.32 10 -5 10 C-3.84414715 6.08788267 -2.64465038 3.1254959 0 0 Z " fill="#AA606B" transform="translate(141,307)"/>
<path d="M0 0 C0.33 0 0.66 0 1 0 C1 2.64 1 5.28 1 8 C-1.97 7.67 -4.94 7.34 -8 7 C-8 6.67 -8 6.34 -8 6 C-5.69 5.34 -3.38 4.68 -1 4 C-0.67 2.68 -0.34 1.36 0 0 Z " fill="#B78A90" transform="translate(226,260)"/>
<path d="M0 0 C0.33 0 0.66 0 1 0 C1 2.31 1 4.62 1 7 C-2.36720387 5.60667426 -3.9859524 4.0210714 -6 1 C-3.525 1.99 -3.525 1.99 -1 3 C-0.67 2.01 -0.34 1.02 0 0 Z " fill="#A05C65" transform="translate(256,246)"/>
<path d="M0 0 C5.75 1.875 5.75 1.875 8 3 C8 3.66 8 4.32 8 5 C5.23723823 4.47731534 2.6739124 3.89130413 0 3 C0 2.01 0 1.02 0 0 Z " fill="#AC5F6C" transform="translate(283,300)"/>
<path d="M0 0 C1.09658936 3.28976808 0.79953138 4.71303767 0 8 C-0.99 7.67 -1.98 7.34 -3 7 C-2.25 2.25 -2.25 2.25 0 0 Z " fill="#A86A70" transform="translate(346,200)"/>
<path d="M0 0 C3.85645121 -0.22036864 6.49223216 0.39644899 10 2 C10 2.66 10 3.32 10 4 C8.02 4 6.04 4 4 4 C4 3.34 4 2.68 4 2 C2.68 1.34 1.36 0.68 0 0 Z " fill="#891825" transform="translate(332,176)"/>
<path d="M0 0 C0.33 1.32 0.66 2.64 1 4 C0.34 4 -0.32 4 -1 4 C-1.33 5.65 -1.66 7.3 -2 9 C-2.66 9 -3.32 9 -4 9 C-2.94124926 5.59687262 -1.99097846 2.98646769 0 0 Z " fill="#B16974" transform="translate(160,321)"/>
<path d="M0 0 C1.6415049 3.2830098 0.51888624 6.42545033 0 10 C-0.99 9.67 -1.98 9.34 -3 9 C-2.44271087 5.65626525 -1.64826111 2.96687001 0 0 Z " fill="#BB808B" transform="translate(262,306)"/>
<path d="M0 0 C1.65 0 3.3 0 5 0 C4.01 0.495 4.01 0.495 3 1 C2.34444881 3.52733235 2.34444881 3.52733235 2 6 C1.34 5.67 0.68 5.34 0 5 C0 3.35 0 1.7 0 0 Z " fill="#A51325" transform="translate(154,309)"/>
<path d="M0 0 C2.64 0.33 5.28 0.66 8 1 C7.67 2.32 7.34 3.64 7 5 C4.11562221 3.70700306 2.12780579 2.34058637 0 0 Z " fill="#A45159" transform="translate(243,242)"/>
<path d="M0 0 C0.75 1.6875 0.75 1.6875 1 4 C-0.9375 6.75 -0.9375 6.75 -3 9 C-3.26218749 5.85375007 -3.24754367 4.38162983 -1.5 1.6875 C-1.005 1.130625 -0.51 0.57375 0 0 Z " fill="#81252F" transform="translate(240,216)"/>
<path d="M0 0 C0.66 0.99 1.32 1.98 2 3 C1.125 6.6875 1.125 6.6875 0 10 C-0.99 9.01 -1.98 8.02 -3 7 C-1.125 2.25 -1.125 2.25 0 0 Z " fill="#AA5865" transform="translate(242,210)"/>
<path d="M0 0 C0.99 0 1.98 0 3 0 C3 1.32 3 2.64 3 4 C2.34 4 1.68 4 1 4 C1.33 5.32 1.66 6.64 2 8 C1.34 7.67 0.68 7.34 0 7 C0 6.34 0 5.68 0 5 C-0.66 4.67 -1.32 4.34 -2 4 C-1.34 4 -0.68 4 0 4 C0 2.68 0 1.36 0 0 Z " fill="#AB404F" transform="translate(351,207)"/>
<path d="M0 0 C1.32 0.66 2.64 1.32 4 2 C1.75 3.625 1.75 3.625 -1 5 C-3.3125 4.1875 -3.3125 4.1875 -5 3 C-5 2.67 -5 2.34 -5 2 C-3.35 1.67 -1.7 1.34 0 1 C0 0.67 0 0.34 0 0 Z " fill="#AF5964" transform="translate(284,201)"/>
<path d="M0 0 C1.09658936 3.28976808 0.79953138 4.71303767 0 8 C-0.99 8.33 -1.98 8.66 -3 9 C-2.5020163 5.26512223 -2.12508244 3.18762365 0 0 Z " fill="#A24A57" transform="translate(225,188)"/>
<path d="M0 0 C1.98 0 3.96 0 6 0 C4.35 1.65 2.7 3.3 1 5 C0.67 3.35 0.34 1.7 0 0 Z " fill="#8F231F" transform="translate(78,78)"/>
<path d="M0 0 C0.33 0.66 0.66 1.32 1 2 C0.06421005 4.35981813 -0.93347808 6.69631264 -2 9 C-2.66 9 -3.32 9 -4 9 C-2.94124926 5.59687262 -1.99097846 2.98646769 0 0 Z " fill="#AF626F" transform="translate(135,317)"/>
<path d="M0 0 C0.33 1.32 0.66 2.64 1 4 C0.34 4 -0.32 4 -1 4 C-1.33 5.65 -1.66 7.3 -2 9 C-2.66 9 -3.32 9 -4 9 C-2.94124926 5.59687262 -1.99097846 2.98646769 0 0 Z " fill="#A8636D" transform="translate(307,257)"/>
<path d="M0 0 C0.66 0 1.32 0 2 0 C2.33 2.31 2.66 4.62 3 7 C2.01 7 1.02 7 0 7 C0 4.69 0 2.38 0 0 Z " fill="#851825" transform="translate(133,219)"/>
<path d="M0 0 C0 0.66 0 1.32 0 2 C-2.31 2.33 -4.62 2.66 -7 3 C-7.33 2.34 -7.66 1.68 -8 1 C-5.07175348 0.02391783 -3.04386724 -0.08226668 0 0 Z " fill="#9A3B49" transform="translate(293,199)"/>
</svg>
